<svg xmlns="http://www.w3.org/2000/svg" viewBox="0 0 96 96">
    <path fill="#052e16" d="M0 0h96v72H0z"/>
    <path fill="#86efac" d="M11.5 33.66h4.73c3.04 0 4.97-1.51 4.97-3.92 0-1.58-.85-2.73-2.3-3.24a3 3 0 0 0 1.28-2.47c0-1.95-1.58-3-4.5-3H11.5zm2.33-5.63h2.73c1.36 0 2.2.8 2.2 2.02 0 1.17-.7 1.72-2.24 1.72h-2.7zm2.95-1.84h-2.95v-3.27h1.67c1.5 0 2.3.62 2.3 1.7 0 .66-.31 1.17-1.02 1.57zm11.94 7.47h1.68v-5.32c0-2.4-1.37-3.71-4-3.71a8.2 8.2 0 0 0-3.65.85l.55 1.62a7.2 7.2 0 0 1 2.62-.54c1.42 0 2.18.54 2.18 1.6v.24c-3.82.05-5.52.93-5.52 2.8 0 1.6 1.19 2.64 3.06 2.64 1.13 0 2.08-.36 2.75-1.05zm-.62-2.28c-.43.4-1.02.64-1.7.64-.88 0-1.48-.45-1.48-1.13 0-.8.9-1.16 3.18-1.2zm10.58 2.28H41V28.2c0-2.19-1.24-3.54-3.23-3.54-1.07 0-2.07.39-2.86 1.12l-.4-.97h-1.67v8.85h2.33v-6.34a2.83 2.83 0 0 1 1.8-.63c1.13 0 1.71.63 1.71 1.83zm10.36 0h3l-3.65-4.88 3.31-3.97H49l-3.24 4.06V20.2h-2.3v13.46h2.3v-4.55zM10.02 51.62h2.5l1.03-3.17h4.85l1.02 3.17h2.6l-4.37-12.64h-3.02zm4.2-5.26L15.98 41l1.75 5.36zm13 5.44a6.1 6.1 0 0 0 2.92-.69l-.5-1.6c-.65.27-1.32.42-1.9.42-1.64 0-2.59-1.02-2.59-2.79 0-1.67.86-2.59 2.42-2.59.66 0 1.4.15 2.04.4l.5-1.83a6.46 6.46 0 0 0-2.6-.53c-2.87 0-4.72 1.9-4.72 4.8 0 2.77 1.65 4.41 4.44 4.41zm8.66 0a6.1 6.1 0 0 0 2.91-.69l-.5-1.6c-.65.27-1.32.42-1.9.42-1.64 0-2.59-1.02-2.59-2.79 0-1.67.86-2.59 2.42-2.59.66 0 1.4.15 2.04.4l.5-1.83a6.46 6.46 0 0 0-2.6-.53c-2.87 0-4.73 1.9-4.73 4.8 0 2.77 1.66 4.41 4.45 4.41zm8.61 0c2.79 0 4.66-1.91 4.66-4.75 0-2.71-1.73-4.46-4.39-4.46-2.8 0-4.68 1.9-4.68 4.75 0 2.7 1.72 4.46 4.41 4.46zm.2-1.96c-1.36 0-2.26-1.06-2.26-2.7 0-1.6.82-2.59 2.12-2.59 1.36 0 2.25 1.08 2.25 2.74 0 1.56-.82 2.55-2.1 2.55zm9.47 1.93a4 4 0 0 0 2.77-1.12l.42.97H59v-8.85h-2.33v6.36c-.49.4-1.05.61-1.65.61-1.26 0-1.64-.96-1.64-1.83v-5.14h-2.31v5.65c0 2.03 1.25 3.35 3.1 3.35zm13.31-.15h2.32v-5.46c0-2.19-1.24-3.54-3.23-3.54-1.07 0-2.07.39-2.86 1.12l-.4-.97h-1.67v8.85h2.33v-6.34a2.83 2.83 0 0 1 1.8-.63c1.13 0 1.71.63 1.71 1.83zm8.29.13c.6 0 1.25-.13 1.82-.31l-.47-1.66c-.26.11-.57.16-.84.16-.84 0-1.37-.49-1.37-1.25v-4.06h2.22v-1.86H74.9V40.2h-2.3v2.57h-1.23v1.86h1.24v4.2c0 1.79 1.18 2.92 3.15 2.92zm6.37.05c2.42 0 3.86-1.07 3.86-2.84 0-3.31-5-2.2-5-3.7 0-.52.63-.85 1.7-.85.73 0 1.6.14 2.43.38l.49-1.75a8.88 8.88 0 0 0-2.86-.45c-2.53 0-4 1.02-4 2.84 0 3.3 4.93 2.04 4.93 3.64 0 .57-.6.91-1.58.91-.86 0-2.04-.24-2.97-.6l-.51 1.73c1 .44 2.3.7 3.51.7z"/>
    <path fill="#14532d" d="M0 72h96v24H0z"/>
    <path fill="#fff" d="M20.11 88.5c.95 0 2-.24 2.8-.62l-.4-1.25c-.6.23-1.34.36-1.98.36-2.03 0-3.3-1.33-3.3-3.41 0-1.97 1.15-3.09 3.1-3.09.73 0 1.57.15 2.17.4l.48-1.34a6.15 6.15 0 0 0-2.61-.58c-2.93 0-4.93 1.94-4.93 4.85 0 2.8 1.9 4.68 4.67 4.68zm6.05-.04c.43 0 .9-.08 1.24-.24l-.34-1.13c-.15.05-.3.08-.42.08-.4 0-.61-.27-.61-.72V78.5h-1.68v8.16c0 1.12.68 1.8 1.81 1.8zm5.09.04c2.04 0 3.41-1.4 3.41-3.48 0-1.99-1.26-3.27-3.21-3.27-2.06 0-3.43 1.39-3.43 3.48 0 1.98 1.25 3.27 3.23 3.27zm.14-1.44c-1 0-1.65-.77-1.65-1.97 0-1.18.6-1.9 1.55-1.9 1 0 1.65.79 1.65 2 0 1.15-.6 1.87-1.55 1.87zm6.95 1.42c.76 0 1.48-.3 2.03-.82l.3.71h1.22v-6.49h-1.71v4.66c-.36.3-.78.45-1.22.45-.92 0-1.2-.7-1.2-1.34v-3.77h-1.7v4.14c0 1.5.93 2.46 2.28 2.46zm7.89.02c.81 0 1.5-.32 1.98-.88l.37.75h1.09V78.5h-1.66v3.74c-.4-.33-.94-.5-1.56-.5-1.83 0-3.04 1.37-3.04 3.44 0 2 1.16 3.32 2.82 3.32zM48 86.47c-.29.38-.73.6-1.25.6-1 0-1.63-.78-1.63-2 0-1.16.59-1.88 1.55-1.88.55 0 1.03.23 1.33.61zm7.87 1.9h1.7v-4c0-1.6-.91-2.6-2.37-2.6-.79 0-1.52.29-2.1.82l-.29-.7H51.6v6.48h1.71v-4.65c.39-.3.83-.46 1.32-.46.83 0 1.26.46 1.26 1.35zm6.33.13c2.04 0 3.41-1.4 3.41-3.48 0-1.99-1.26-3.27-3.21-3.27-2.06 0-3.43 1.39-3.43 3.48 0 1.98 1.25 3.27 3.23 3.27zm.14-1.44c-1 0-1.65-.77-1.65-1.97 0-1.18.6-1.9 1.55-1.9 1 0 1.65.79 1.65 2 0 1.15-.6 1.87-1.55 1.87zm7.21 1.44c.82 0 1.51-.32 2-.88l.35.75h1.1V78.5h-1.66v3.74c-.41-.33-.95-.5-1.56-.5-1.83 0-3.05 1.37-3.05 3.44 0 2 1.17 3.32 2.82 3.32zm1.8-2.03c-.3.38-.74.6-1.26.6-1 0-1.63-.78-1.63-2 0-1.16.58-1.88 1.55-1.88.54 0 1.02.23 1.33.61zm6.75 2.03c.76 0 1.58-.16 2.3-.45l-.4-1.18a4.4 4.4 0 0 1-1.64.34c-1.16 0-1.88-.55-2.08-1.62h4.2c.05-.26.09-.66.09-.96 0-1.77-1.09-2.88-2.82-2.88-1.94 0-3.23 1.37-3.23 3.39 0 2.08 1.36 3.36 3.58 3.36zm-1.86-3.95c.1-.97.57-1.5 1.39-1.5.84 0 1.33.55 1.33 1.5z"/>
</svg>
